<svg width="95" height="26" viewBox="0 0 95 26" fill="none" xmlns="http://www.w3.org/2000/svg">
<path fill-rule="evenodd" clip-rule="evenodd" d="M73.3461 17.9065V24.5836H64.7469C60.9701 24.1452 53.4162 21.1034 53.4162 12.4436C53.4162 3.78364 60.9701 0.539558 64.7469 0H87.004H90.4436L83.3616 6.77819H67.0738C65.5562 7.04797 62.5213 8.55877 62.5213 12.4436C62.5213 16.3283 65.5562 17.8054 67.0738 17.9065H73.3461ZM49.066 0.404762L41.5796 7.48648H28.0233C27.9803 7.51983 27.9314 7.55505 27.879 7.59278C27.5603 7.82219 27.1127 8.14444 27.1127 8.70046C27.1127 9.34792 27.7198 9.57726 28.0233 9.61096H30.8559C34.3293 10.0831 41.2761 12.4437 41.2761 18.109C41.2761 23.7743 34.3293 25.7303 30.8559 26H4.04662L10.6225 19.4242H30.8559C31.2943 19.3904 32.1711 19.0802 32.1711 18.109C32.1711 17.1378 31.2943 16.6927 30.8559 16.5914H25.2917C23.0323 16.2879 18.5135 14.2849 18.5135 8.70046C18.5135 3.11604 23.0323 0.843153 25.2917 0.404762H49.066ZM51.4939 0.404762L43.7041 7.38531V25.7977H51.4939V0.404762ZM91.3536 0L84.576 6.77819H87.914L94.6925 0H91.3536ZM0 25.9999L6.57586 19.4241H9.91443L3.33851 25.9999H0Z" fill="#63A8E7"/>
</svg>
