<svg width="132" height="37" viewBox="0 0 132 37" fill="none" xmlns="http://www.w3.org/2000/svg">
<path fill-rule="evenodd" clip-rule="evenodd" d="M101.556 25.3352V34.5803H89.6496C84.4201 33.9733 73.9608 29.7616 73.9608 17.7711C73.9608 5.78039 84.4201 1.28858 89.6496 0.541504H120.467H125.23L115.424 9.92669H92.8714C90.7701 10.3002 86.5679 12.3921 86.5679 17.7711C86.5679 23.1499 90.7701 25.1952 92.8714 25.3352H101.556ZM67.9375 1.10194L57.5718 10.9074H38.8015C38.742 10.9536 38.6743 11.0023 38.6017 11.0546C38.1604 11.3722 37.5407 11.8184 37.5407 12.5883C37.5407 13.4848 38.3812 13.8023 38.8015 13.849H42.7235C47.5329 14.5027 57.1515 17.7712 57.1515 25.6154C57.1515 33.4598 47.5329 36.168 42.7235 36.5415H5.60301L14.7081 27.4366H42.7235C43.3306 27.3898 44.5446 26.9603 44.5446 25.6154C44.5446 24.2707 43.3306 23.6544 42.7235 23.5143H35.0193C31.8908 23.094 25.6341 20.3206 25.6341 12.5883C25.6341 4.85602 31.8908 1.70895 35.0193 1.10194H67.9375ZM71.2993 1.10194L60.5134 10.7673V36.2614H71.2993V1.10194ZM126.49 0.541504L117.105 9.92669H121.727L131.113 0.541504H126.49ZM0 36.5414L9.10503 27.4363H13.7277L4.62256 36.5414H0Z" fill="white"/>
</svg>
